<svg xmlns="http://www.w3.org/2000/svg" xmlns:xlink="http://www.w3.org/1999/xlink" width="1256.734" height="1115.734" viewBox="0 0 1256.734 1115.734">
  <defs>
    <clipPath id="clip-path">
      <rect width="1256.734" height="1115.734" fill="none"/>
    </clipPath>
  </defs>
  <g id="Repeat_Grid_1" data-name="Repeat Grid 1" opacity="0.891" clip-path="url(#clip-path)" style="mix-blend-mode: overlay;isolation: isolate">
    <g transform="translate(-663.266 -114.266)">
      <rect id="Rectangle_116" data-name="Rectangle 116" width="47" height="47" transform="translate(696.5 114.266) rotate(45)" fill="#898989"/>
    </g>
    <g transform="translate(-576.266 -114.266)">
      <rect id="Rectangle_116-2" data-name="Rectangle 116" width="47" height="47" transform="translate(696.5 114.266) rotate(45)" fill="#898989"/>
    </g>
    <g transform="translate(-489.266 -114.266)">
      <rect id="Rectangle_116-3" data-name="Rectangle 116" width="47" height="47" transform="translate(696.5 114.266) rotate(45)" fill="#898989"/>
    </g>
    <g transform="translate(-402.266 -114.266)">
      <rect id="Rectangle_116-4" data-name="Rectangle 116" width="47" height="47" transform="translate(696.5 114.266) rotate(45)" fill="#898989"/>
    </g>
    <g transform="translate(-315.266 -114.266)">
      <rect id="Rectangle_116-5" data-name="Rectangle 116" width="47" height="47" transform="translate(696.5 114.266) rotate(45)" fill="#898989"/>
    </g>
    <g transform="translate(-228.266 -114.266)">
      <rect id="Rectangle_116-6" data-name="Rectangle 116" width="47" height="47" transform="translate(696.5 114.266) rotate(45)" fill="#898989"/>
    </g>
    <g transform="translate(-141.266 -114.266)">
      <rect id="Rectangle_116-7" data-name="Rectangle 116" width="47" height="47" transform="translate(696.5 114.266) rotate(45)" fill="#898989"/>
    </g>
    <g transform="translate(-54.266 -114.266)">
      <rect id="Rectangle_116-8" data-name="Rectangle 116" width="47" height="47" transform="translate(696.5 114.266) rotate(45)" fill="#898989"/>
    </g>
    <g transform="translate(32.734 -114.266)">
      <rect id="Rectangle_116-9" data-name="Rectangle 116" width="47" height="47" transform="translate(696.5 114.266) rotate(45)" fill="#898989"/>
    </g>
    <g transform="translate(119.734 -114.266)">
      <rect id="Rectangle_116-10" data-name="Rectangle 116" width="47" height="47" transform="translate(696.5 114.266) rotate(45)" fill="#898989"/>
    </g>
    <g transform="translate(206.734 -114.266)">
      <rect id="Rectangle_116-11" data-name="Rectangle 116" width="47" height="47" transform="translate(696.5 114.266) rotate(45)" fill="#898989"/>
    </g>
    <g transform="translate(293.734 -114.266)">
      <rect id="Rectangle_116-12" data-name="Rectangle 116" width="47" height="47" transform="translate(696.5 114.266) rotate(45)" fill="#898989"/>
    </g>
    <g transform="translate(380.734 -114.266)">
      <rect id="Rectangle_116-13" data-name="Rectangle 116" width="47" height="47" transform="translate(696.5 114.266) rotate(45)" fill="#898989"/>
    </g>
    <g transform="translate(467.734 -114.266)">
      <rect id="Rectangle_116-14" data-name="Rectangle 116" width="47" height="47" transform="translate(696.5 114.266) rotate(45)" fill="#898989"/>
    </g>
    <g transform="translate(554.734 -114.266)">
      <rect id="Rectangle_116-15" data-name="Rectangle 116" width="47" height="47" transform="translate(696.5 114.266) rotate(45)" fill="#898989"/>
    </g>
    <g transform="translate(-663.266 -27.266)">
      <rect id="Rectangle_116-16" data-name="Rectangle 116" width="47" height="47" transform="translate(696.5 114.266) rotate(45)" fill="#898989"/>
    </g>
    <g transform="translate(-576.266 -27.266)">
      <rect id="Rectangle_116-17" data-name="Rectangle 116" width="47" height="47" transform="translate(696.5 114.266) rotate(45)" fill="#898989"/>
    </g>
    <g transform="translate(-489.266 -27.266)">
      <rect id="Rectangle_116-18" data-name="Rectangle 116" width="47" height="47" transform="translate(696.5 114.266) rotate(45)" fill="#898989"/>
    </g>
    <g transform="translate(-402.266 -27.266)">
      <rect id="Rectangle_116-19" data-name="Rectangle 116" width="47" height="47" transform="translate(696.5 114.266) rotate(45)" fill="#898989"/>
    </g>
    <g transform="translate(-315.266 -27.266)">
      <rect id="Rectangle_116-20" data-name="Rectangle 116" width="47" height="47" transform="translate(696.5 114.266) rotate(45)" fill="#898989"/>
    </g>
    <g transform="translate(-228.266 -27.266)">
      <rect id="Rectangle_116-21" data-name="Rectangle 116" width="47" height="47" transform="translate(696.5 114.266) rotate(45)" fill="#898989"/>
    </g>
    <g transform="translate(-141.266 -27.266)">
      <rect id="Rectangle_116-22" data-name="Rectangle 116" width="47" height="47" transform="translate(696.5 114.266) rotate(45)" fill="#898989"/>
    </g>
    <g transform="translate(-54.266 -27.266)">
      <rect id="Rectangle_116-23" data-name="Rectangle 116" width="47" height="47" transform="translate(696.5 114.266) rotate(45)" fill="#898989"/>
    </g>
    <g transform="translate(32.734 -27.266)">
      <rect id="Rectangle_116-24" data-name="Rectangle 116" width="47" height="47" transform="translate(696.5 114.266) rotate(45)" fill="#898989"/>
    </g>
    <g transform="translate(119.734 -27.266)">
      <rect id="Rectangle_116-25" data-name="Rectangle 116" width="47" height="47" transform="translate(696.5 114.266) rotate(45)" fill="#898989"/>
    </g>
    <g transform="translate(206.734 -27.266)">
      <rect id="Rectangle_116-26" data-name="Rectangle 116" width="47" height="47" transform="translate(696.5 114.266) rotate(45)" fill="#898989"/>
    </g>
    <g transform="translate(293.734 -27.266)">
      <rect id="Rectangle_116-27" data-name="Rectangle 116" width="47" height="47" transform="translate(696.5 114.266) rotate(45)" fill="#898989"/>
    </g>
    <g transform="translate(380.734 -27.266)">
      <rect id="Rectangle_116-28" data-name="Rectangle 116" width="47" height="47" transform="translate(696.5 114.266) rotate(45)" fill="#898989"/>
    </g>
    <g transform="translate(467.734 -27.266)">
      <rect id="Rectangle_116-29" data-name="Rectangle 116" width="47" height="47" transform="translate(696.5 114.266) rotate(45)" fill="#898989"/>
    </g>
    <g transform="translate(554.734 -27.266)">
      <rect id="Rectangle_116-30" data-name="Rectangle 116" width="47" height="47" transform="translate(696.5 114.266) rotate(45)" fill="#898989"/>
    </g>
    <g transform="translate(-663.266 59.734)">
      <rect id="Rectangle_116-31" data-name="Rectangle 116" width="47" height="47" transform="translate(696.5 114.266) rotate(45)" fill="#898989"/>
    </g>
    <g transform="translate(-576.266 59.734)">
      <rect id="Rectangle_116-32" data-name="Rectangle 116" width="47" height="47" transform="translate(696.5 114.266) rotate(45)" fill="#898989"/>
    </g>
    <g transform="translate(-489.266 59.734)">
      <rect id="Rectangle_116-33" data-name="Rectangle 116" width="47" height="47" transform="translate(696.5 114.266) rotate(45)" fill="#898989"/>
    </g>
    <g transform="translate(-402.266 59.734)">
      <rect id="Rectangle_116-34" data-name="Rectangle 116" width="47" height="47" transform="translate(696.5 114.266) rotate(45)" fill="#898989"/>
    </g>
    <g transform="translate(-315.266 59.734)">
      <rect id="Rectangle_116-35" data-name="Rectangle 116" width="47" height="47" transform="translate(696.5 114.266) rotate(45)" fill="#898989"/>
    </g>
    <g transform="translate(-228.266 59.734)">
      <rect id="Rectangle_116-36" data-name="Rectangle 116" width="47" height="47" transform="translate(696.5 114.266) rotate(45)" fill="#898989"/>
    </g>
    <g transform="translate(-141.266 59.734)">
      <rect id="Rectangle_116-37" data-name="Rectangle 116" width="47" height="47" transform="translate(696.5 114.266) rotate(45)" fill="#898989"/>
    </g>
    <g transform="translate(-54.266 59.734)">
      <rect id="Rectangle_116-38" data-name="Rectangle 116" width="47" height="47" transform="translate(696.5 114.266) rotate(45)" fill="#898989"/>
    </g>
    <g transform="translate(32.734 59.734)">
      <rect id="Rectangle_116-39" data-name="Rectangle 116" width="47" height="47" transform="translate(696.5 114.266) rotate(45)" fill="#898989"/>
    </g>
    <g transform="translate(119.734 59.734)">
      <rect id="Rectangle_116-40" data-name="Rectangle 116" width="47" height="47" transform="translate(696.5 114.266) rotate(45)" fill="#898989"/>
    </g>
    <g transform="translate(206.734 59.734)">
      <rect id="Rectangle_116-41" data-name="Rectangle 116" width="47" height="47" transform="translate(696.5 114.266) rotate(45)" fill="#898989"/>
    </g>
    <g transform="translate(293.734 59.734)">
      <rect id="Rectangle_116-42" data-name="Rectangle 116" width="47" height="47" transform="translate(696.5 114.266) rotate(45)" fill="#898989"/>
    </g>
    <g transform="translate(380.734 59.734)">
      <rect id="Rectangle_116-43" data-name="Rectangle 116" width="47" height="47" transform="translate(696.5 114.266) rotate(45)" fill="#898989"/>
    </g>
    <g transform="translate(467.734 59.734)">
      <rect id="Rectangle_116-44" data-name="Rectangle 116" width="47" height="47" transform="translate(696.5 114.266) rotate(45)" fill="#898989"/>
    </g>
    <g transform="translate(554.734 59.734)">
      <rect id="Rectangle_116-45" data-name="Rectangle 116" width="47" height="47" transform="translate(696.5 114.266) rotate(45)" fill="#898989"/>
    </g>
    <g transform="translate(-663.266 146.734)">
      <rect id="Rectangle_116-46" data-name="Rectangle 116" width="47" height="47" transform="translate(696.5 114.266) rotate(45)" fill="#898989"/>
    </g>
    <g transform="translate(-576.266 146.734)">
      <rect id="Rectangle_116-47" data-name="Rectangle 116" width="47" height="47" transform="translate(696.5 114.266) rotate(45)" fill="#898989"/>
    </g>
    <g transform="translate(-489.266 146.734)">
      <rect id="Rectangle_116-48" data-name="Rectangle 116" width="47" height="47" transform="translate(696.5 114.266) rotate(45)" fill="#898989"/>
    </g>
    <g transform="translate(-402.266 146.734)">
      <rect id="Rectangle_116-49" data-name="Rectangle 116" width="47" height="47" transform="translate(696.5 114.266) rotate(45)" fill="#898989"/>
    </g>
    <g transform="translate(-315.266 146.734)">
      <rect id="Rectangle_116-50" data-name="Rectangle 116" width="47" height="47" transform="translate(696.5 114.266) rotate(45)" fill="#898989"/>
    </g>
    <g transform="translate(-228.266 146.734)">
      <rect id="Rectangle_116-51" data-name="Rectangle 116" width="47" height="47" transform="translate(696.5 114.266) rotate(45)" fill="#898989"/>
    </g>
    <g transform="translate(-141.266 146.734)">
      <rect id="Rectangle_116-52" data-name="Rectangle 116" width="47" height="47" transform="translate(696.5 114.266) rotate(45)" fill="#898989"/>
    </g>
    <g transform="translate(-54.266 146.734)">
      <rect id="Rectangle_116-53" data-name="Rectangle 116" width="47" height="47" transform="translate(696.5 114.266) rotate(45)" fill="#898989"/>
    </g>
    <g transform="translate(32.734 146.734)">
      <rect id="Rectangle_116-54" data-name="Rectangle 116" width="47" height="47" transform="translate(696.5 114.266) rotate(45)" fill="#898989"/>
    </g>
    <g transform="translate(119.734 146.734)">
      <rect id="Rectangle_116-55" data-name="Rectangle 116" width="47" height="47" transform="translate(696.5 114.266) rotate(45)" fill="#898989"/>
    </g>
    <g transform="translate(206.734 146.734)">
      <rect id="Rectangle_116-56" data-name="Rectangle 116" width="47" height="47" transform="translate(696.5 114.266) rotate(45)" fill="#898989"/>
    </g>
    <g transform="translate(293.734 146.734)">
      <rect id="Rectangle_116-57" data-name="Rectangle 116" width="47" height="47" transform="translate(696.5 114.266) rotate(45)" fill="#898989"/>
    </g>
    <g transform="translate(380.734 146.734)">
      <rect id="Rectangle_116-58" data-name="Rectangle 116" width="47" height="47" transform="translate(696.5 114.266) rotate(45)" fill="#898989"/>
    </g>
    <g transform="translate(467.734 146.734)">
      <rect id="Rectangle_116-59" data-name="Rectangle 116" width="47" height="47" transform="translate(696.5 114.266) rotate(45)" fill="#898989"/>
    </g>
    <g transform="translate(554.734 146.734)">
      <rect id="Rectangle_116-60" data-name="Rectangle 116" width="47" height="47" transform="translate(696.5 114.266) rotate(45)" fill="#898989"/>
    </g>
    <g transform="translate(-663.266 233.734)">
      <rect id="Rectangle_116-61" data-name="Rectangle 116" width="47" height="47" transform="translate(696.5 114.266) rotate(45)" fill="#898989"/>
    </g>
    <g transform="translate(-576.266 233.734)">
      <rect id="Rectangle_116-62" data-name="Rectangle 116" width="47" height="47" transform="translate(696.5 114.266) rotate(45)" fill="#898989"/>
    </g>
    <g transform="translate(-489.266 233.734)">
      <rect id="Rectangle_116-63" data-name="Rectangle 116" width="47" height="47" transform="translate(696.5 114.266) rotate(45)" fill="#898989"/>
    </g>
    <g transform="translate(-402.266 233.734)">
      <rect id="Rectangle_116-64" data-name="Rectangle 116" width="47" height="47" transform="translate(696.5 114.266) rotate(45)" fill="#898989"/>
    </g>
    <g transform="translate(-315.266 233.734)">
      <rect id="Rectangle_116-65" data-name="Rectangle 116" width="47" height="47" transform="translate(696.5 114.266) rotate(45)" fill="#898989"/>
    </g>
    <g transform="translate(-228.266 233.734)">
      <rect id="Rectangle_116-66" data-name="Rectangle 116" width="47" height="47" transform="translate(696.5 114.266) rotate(45)" fill="#898989"/>
    </g>
    <g transform="translate(-141.266 233.734)">
      <rect id="Rectangle_116-67" data-name="Rectangle 116" width="47" height="47" transform="translate(696.5 114.266) rotate(45)" fill="#898989"/>
    </g>
    <g transform="translate(-54.266 233.734)">
      <rect id="Rectangle_116-68" data-name="Rectangle 116" width="47" height="47" transform="translate(696.5 114.266) rotate(45)" fill="#898989"/>
    </g>
    <g transform="translate(32.734 233.734)">
      <rect id="Rectangle_116-69" data-name="Rectangle 116" width="47" height="47" transform="translate(696.5 114.266) rotate(45)" fill="#898989"/>
    </g>
    <g transform="translate(119.734 233.734)">
      <rect id="Rectangle_116-70" data-name="Rectangle 116" width="47" height="47" transform="translate(696.5 114.266) rotate(45)" fill="#898989"/>
    </g>
    <g transform="translate(206.734 233.734)">
      <rect id="Rectangle_116-71" data-name="Rectangle 116" width="47" height="47" transform="translate(696.5 114.266) rotate(45)" fill="#898989"/>
    </g>
    <g transform="translate(293.734 233.734)">
      <rect id="Rectangle_116-72" data-name="Rectangle 116" width="47" height="47" transform="translate(696.5 114.266) rotate(45)" fill="#898989"/>
    </g>
    <g transform="translate(380.734 233.734)">
      <rect id="Rectangle_116-73" data-name="Rectangle 116" width="47" height="47" transform="translate(696.5 114.266) rotate(45)" fill="#898989"/>
    </g>
    <g transform="translate(467.734 233.734)">
      <rect id="Rectangle_116-74" data-name="Rectangle 116" width="47" height="47" transform="translate(696.5 114.266) rotate(45)" fill="#898989"/>
    </g>
    <g transform="translate(554.734 233.734)">
      <rect id="Rectangle_116-75" data-name="Rectangle 116" width="47" height="47" transform="translate(696.5 114.266) rotate(45)" fill="#898989"/>
    </g>
    <g transform="translate(-663.266 320.734)">
      <rect id="Rectangle_116-76" data-name="Rectangle 116" width="47" height="47" transform="translate(696.5 114.266) rotate(45)" fill="#898989"/>
    </g>
    <g transform="translate(-576.266 320.734)">
      <rect id="Rectangle_116-77" data-name="Rectangle 116" width="47" height="47" transform="translate(696.5 114.266) rotate(45)" fill="#898989"/>
    </g>
    <g transform="translate(-489.266 320.734)">
      <rect id="Rectangle_116-78" data-name="Rectangle 116" width="47" height="47" transform="translate(696.5 114.266) rotate(45)" fill="#898989"/>
    </g>
    <g transform="translate(-402.266 320.734)">
      <rect id="Rectangle_116-79" data-name="Rectangle 116" width="47" height="47" transform="translate(696.5 114.266) rotate(45)" fill="#898989"/>
    </g>
    <g transform="translate(-315.266 320.734)">
      <rect id="Rectangle_116-80" data-name="Rectangle 116" width="47" height="47" transform="translate(696.5 114.266) rotate(45)" fill="#898989"/>
    </g>
    <g transform="translate(-228.266 320.734)">
      <rect id="Rectangle_116-81" data-name="Rectangle 116" width="47" height="47" transform="translate(696.5 114.266) rotate(45)" fill="#898989"/>
    </g>
    <g transform="translate(-141.266 320.734)">
      <rect id="Rectangle_116-82" data-name="Rectangle 116" width="47" height="47" transform="translate(696.5 114.266) rotate(45)" fill="#898989"/>
    </g>
    <g transform="translate(-54.266 320.734)">
      <rect id="Rectangle_116-83" data-name="Rectangle 116" width="47" height="47" transform="translate(696.5 114.266) rotate(45)" fill="#898989"/>
    </g>
    <g transform="translate(32.734 320.734)">
      <rect id="Rectangle_116-84" data-name="Rectangle 116" width="47" height="47" transform="translate(696.5 114.266) rotate(45)" fill="#898989"/>
    </g>
    <g transform="translate(119.734 320.734)">
      <rect id="Rectangle_116-85" data-name="Rectangle 116" width="47" height="47" transform="translate(696.5 114.266) rotate(45)" fill="#898989"/>
    </g>
    <g transform="translate(206.734 320.734)">
      <rect id="Rectangle_116-86" data-name="Rectangle 116" width="47" height="47" transform="translate(696.5 114.266) rotate(45)" fill="#898989"/>
    </g>
    <g transform="translate(293.734 320.734)">
      <rect id="Rectangle_116-87" data-name="Rectangle 116" width="47" height="47" transform="translate(696.5 114.266) rotate(45)" fill="#898989"/>
    </g>
    <g transform="translate(380.734 320.734)">
      <rect id="Rectangle_116-88" data-name="Rectangle 116" width="47" height="47" transform="translate(696.5 114.266) rotate(45)" fill="#898989"/>
    </g>
    <g transform="translate(467.734 320.734)">
      <rect id="Rectangle_116-89" data-name="Rectangle 116" width="47" height="47" transform="translate(696.5 114.266) rotate(45)" fill="#898989"/>
    </g>
    <g transform="translate(554.734 320.734)">
      <rect id="Rectangle_116-90" data-name="Rectangle 116" width="47" height="47" transform="translate(696.5 114.266) rotate(45)" fill="#898989"/>
    </g>
    <g transform="translate(-663.266 407.734)">
      <rect id="Rectangle_116-91" data-name="Rectangle 116" width="47" height="47" transform="translate(696.5 114.266) rotate(45)" fill="#898989"/>
    </g>
    <g transform="translate(-576.266 407.734)">
      <rect id="Rectangle_116-92" data-name="Rectangle 116" width="47" height="47" transform="translate(696.5 114.266) rotate(45)" fill="#898989"/>
    </g>
    <g transform="translate(-489.266 407.734)">
      <rect id="Rectangle_116-93" data-name="Rectangle 116" width="47" height="47" transform="translate(696.5 114.266) rotate(45)" fill="#898989"/>
    </g>
    <g transform="translate(-402.266 407.734)">
      <rect id="Rectangle_116-94" data-name="Rectangle 116" width="47" height="47" transform="translate(696.5 114.266) rotate(45)" fill="#898989"/>
    </g>
    <g transform="translate(-315.266 407.734)">
      <rect id="Rectangle_116-95" data-name="Rectangle 116" width="47" height="47" transform="translate(696.5 114.266) rotate(45)" fill="#898989"/>
    </g>
    <g transform="translate(-228.266 407.734)">
      <rect id="Rectangle_116-96" data-name="Rectangle 116" width="47" height="47" transform="translate(696.5 114.266) rotate(45)" fill="#898989"/>
    </g>
    <g transform="translate(-141.266 407.734)">
      <rect id="Rectangle_116-97" data-name="Rectangle 116" width="47" height="47" transform="translate(696.5 114.266) rotate(45)" fill="#898989"/>
    </g>
    <g transform="translate(-54.266 407.734)">
      <rect id="Rectangle_116-98" data-name="Rectangle 116" width="47" height="47" transform="translate(696.5 114.266) rotate(45)" fill="#898989"/>
    </g>
    <g transform="translate(32.734 407.734)">
      <rect id="Rectangle_116-99" data-name="Rectangle 116" width="47" height="47" transform="translate(696.5 114.266) rotate(45)" fill="#898989"/>
    </g>
    <g transform="translate(119.734 407.734)">
      <rect id="Rectangle_116-100" data-name="Rectangle 116" width="47" height="47" transform="translate(696.5 114.266) rotate(45)" fill="#898989"/>
    </g>
    <g transform="translate(206.734 407.734)">
      <rect id="Rectangle_116-101" data-name="Rectangle 116" width="47" height="47" transform="translate(696.5 114.266) rotate(45)" fill="#898989"/>
    </g>
    <g transform="translate(293.734 407.734)">
      <rect id="Rectangle_116-102" data-name="Rectangle 116" width="47" height="47" transform="translate(696.5 114.266) rotate(45)" fill="#898989"/>
    </g>
    <g transform="translate(380.734 407.734)">
      <rect id="Rectangle_116-103" data-name="Rectangle 116" width="47" height="47" transform="translate(696.5 114.266) rotate(45)" fill="#898989"/>
    </g>
    <g transform="translate(467.734 407.734)">
      <rect id="Rectangle_116-104" data-name="Rectangle 116" width="47" height="47" transform="translate(696.5 114.266) rotate(45)" fill="#898989"/>
    </g>
    <g transform="translate(554.734 407.734)">
      <rect id="Rectangle_116-105" data-name="Rectangle 116" width="47" height="47" transform="translate(696.5 114.266) rotate(45)" fill="#898989"/>
    </g>
    <g transform="translate(-663.266 494.734)">
      <rect id="Rectangle_116-106" data-name="Rectangle 116" width="47" height="47" transform="translate(696.5 114.266) rotate(45)" fill="#898989"/>
    </g>
    <g transform="translate(-576.266 494.734)">
      <rect id="Rectangle_116-107" data-name="Rectangle 116" width="47" height="47" transform="translate(696.5 114.266) rotate(45)" fill="#898989"/>
    </g>
    <g transform="translate(-489.266 494.734)">
      <rect id="Rectangle_116-108" data-name="Rectangle 116" width="47" height="47" transform="translate(696.5 114.266) rotate(45)" fill="#898989"/>
    </g>
    <g transform="translate(-402.266 494.734)">
      <rect id="Rectangle_116-109" data-name="Rectangle 116" width="47" height="47" transform="translate(696.5 114.266) rotate(45)" fill="#898989"/>
    </g>
    <g transform="translate(-315.266 494.734)">
      <rect id="Rectangle_116-110" data-name="Rectangle 116" width="47" height="47" transform="translate(696.5 114.266) rotate(45)" fill="#898989"/>
    </g>
    <g transform="translate(-228.266 494.734)">
      <rect id="Rectangle_116-111" data-name="Rectangle 116" width="47" height="47" transform="translate(696.5 114.266) rotate(45)" fill="#898989"/>
    </g>
    <g transform="translate(-141.266 494.734)">
      <rect id="Rectangle_116-112" data-name="Rectangle 116" width="47" height="47" transform="translate(696.5 114.266) rotate(45)" fill="#898989"/>
    </g>
    <g transform="translate(-54.266 494.734)">
      <rect id="Rectangle_116-113" data-name="Rectangle 116" width="47" height="47" transform="translate(696.5 114.266) rotate(45)" fill="#898989"/>
    </g>
    <g transform="translate(32.734 494.734)">
      <rect id="Rectangle_116-114" data-name="Rectangle 116" width="47" height="47" transform="translate(696.5 114.266) rotate(45)" fill="#898989"/>
    </g>
    <g transform="translate(119.734 494.734)">
      <rect id="Rectangle_116-115" data-name="Rectangle 116" width="47" height="47" transform="translate(696.5 114.266) rotate(45)" fill="#898989"/>
    </g>
    <g transform="translate(206.734 494.734)">
      <rect id="Rectangle_116-116" data-name="Rectangle 116" width="47" height="47" transform="translate(696.5 114.266) rotate(45)" fill="#898989"/>
    </g>
    <g transform="translate(293.734 494.734)">
      <rect id="Rectangle_116-117" data-name="Rectangle 116" width="47" height="47" transform="translate(696.5 114.266) rotate(45)" fill="#898989"/>
    </g>
    <g transform="translate(380.734 494.734)">
      <rect id="Rectangle_116-118" data-name="Rectangle 116" width="47" height="47" transform="translate(696.5 114.266) rotate(45)" fill="#898989"/>
    </g>
    <g transform="translate(467.734 494.734)">
      <rect id="Rectangle_116-119" data-name="Rectangle 116" width="47" height="47" transform="translate(696.5 114.266) rotate(45)" fill="#898989"/>
    </g>
    <g transform="translate(554.734 494.734)">
      <rect id="Rectangle_116-120" data-name="Rectangle 116" width="47" height="47" transform="translate(696.5 114.266) rotate(45)" fill="#898989"/>
    </g>
    <g transform="translate(-663.266 581.734)">
      <rect id="Rectangle_116-121" data-name="Rectangle 116" width="47" height="47" transform="translate(696.5 114.266) rotate(45)" fill="#898989"/>
    </g>
    <g transform="translate(-576.266 581.734)">
      <rect id="Rectangle_116-122" data-name="Rectangle 116" width="47" height="47" transform="translate(696.5 114.266) rotate(45)" fill="#898989"/>
    </g>
    <g transform="translate(-489.266 581.734)">
      <rect id="Rectangle_116-123" data-name="Rectangle 116" width="47" height="47" transform="translate(696.5 114.266) rotate(45)" fill="#898989"/>
    </g>
    <g transform="translate(-402.266 581.734)">
      <rect id="Rectangle_116-124" data-name="Rectangle 116" width="47" height="47" transform="translate(696.5 114.266) rotate(45)" fill="#898989"/>
    </g>
    <g transform="translate(-315.266 581.734)">
      <rect id="Rectangle_116-125" data-name="Rectangle 116" width="47" height="47" transform="translate(696.5 114.266) rotate(45)" fill="#898989"/>
    </g>
    <g transform="translate(-228.266 581.734)">
      <rect id="Rectangle_116-126" data-name="Rectangle 116" width="47" height="47" transform="translate(696.5 114.266) rotate(45)" fill="#898989"/>
    </g>
    <g transform="translate(-141.266 581.734)">
      <rect id="Rectangle_116-127" data-name="Rectangle 116" width="47" height="47" transform="translate(696.5 114.266) rotate(45)" fill="#898989"/>
    </g>
    <g transform="translate(-54.266 581.734)">
      <rect id="Rectangle_116-128" data-name="Rectangle 116" width="47" height="47" transform="translate(696.5 114.266) rotate(45)" fill="#898989"/>
    </g>
    <g transform="translate(32.734 581.734)">
      <rect id="Rectangle_116-129" data-name="Rectangle 116" width="47" height="47" transform="translate(696.5 114.266) rotate(45)" fill="#898989"/>
    </g>
    <g transform="translate(119.734 581.734)">
      <rect id="Rectangle_116-130" data-name="Rectangle 116" width="47" height="47" transform="translate(696.5 114.266) rotate(45)" fill="#898989"/>
    </g>
    <g transform="translate(206.734 581.734)">
      <rect id="Rectangle_116-131" data-name="Rectangle 116" width="47" height="47" transform="translate(696.5 114.266) rotate(45)" fill="#898989"/>
    </g>
    <g transform="translate(293.734 581.734)">
      <rect id="Rectangle_116-132" data-name="Rectangle 116" width="47" height="47" transform="translate(696.5 114.266) rotate(45)" fill="#898989"/>
    </g>
    <g transform="translate(380.734 581.734)">
      <rect id="Rectangle_116-133" data-name="Rectangle 116" width="47" height="47" transform="translate(696.5 114.266) rotate(45)" fill="#898989"/>
    </g>
    <g transform="translate(467.734 581.734)">
      <rect id="Rectangle_116-134" data-name="Rectangle 116" width="47" height="47" transform="translate(696.5 114.266) rotate(45)" fill="#898989"/>
    </g>
    <g transform="translate(554.734 581.734)">
      <rect id="Rectangle_116-135" data-name="Rectangle 116" width="47" height="47" transform="translate(696.5 114.266) rotate(45)" fill="#898989"/>
    </g>
    <g transform="translate(-663.266 668.734)">
      <rect id="Rectangle_116-136" data-name="Rectangle 116" width="47" height="47" transform="translate(696.5 114.266) rotate(45)" fill="#898989"/>
    </g>
    <g transform="translate(-576.266 668.734)">
      <rect id="Rectangle_116-137" data-name="Rectangle 116" width="47" height="47" transform="translate(696.5 114.266) rotate(45)" fill="#898989"/>
    </g>
    <g transform="translate(-489.266 668.734)">
      <rect id="Rectangle_116-138" data-name="Rectangle 116" width="47" height="47" transform="translate(696.5 114.266) rotate(45)" fill="#898989"/>
    </g>
    <g transform="translate(-402.266 668.734)">
      <rect id="Rectangle_116-139" data-name="Rectangle 116" width="47" height="47" transform="translate(696.5 114.266) rotate(45)" fill="#898989"/>
    </g>
    <g transform="translate(-315.266 668.734)">
      <rect id="Rectangle_116-140" data-name="Rectangle 116" width="47" height="47" transform="translate(696.5 114.266) rotate(45)" fill="#898989"/>
    </g>
    <g transform="translate(-228.266 668.734)">
      <rect id="Rectangle_116-141" data-name="Rectangle 116" width="47" height="47" transform="translate(696.5 114.266) rotate(45)" fill="#898989"/>
    </g>
    <g transform="translate(-141.266 668.734)">
      <rect id="Rectangle_116-142" data-name="Rectangle 116" width="47" height="47" transform="translate(696.5 114.266) rotate(45)" fill="#898989"/>
    </g>
    <g transform="translate(-54.266 668.734)">
      <rect id="Rectangle_116-143" data-name="Rectangle 116" width="47" height="47" transform="translate(696.5 114.266) rotate(45)" fill="#898989"/>
    </g>
    <g transform="translate(32.734 668.734)">
      <rect id="Rectangle_116-144" data-name="Rectangle 116" width="47" height="47" transform="translate(696.5 114.266) rotate(45)" fill="#898989"/>
    </g>
    <g transform="translate(119.734 668.734)">
      <rect id="Rectangle_116-145" data-name="Rectangle 116" width="47" height="47" transform="translate(696.5 114.266) rotate(45)" fill="#898989"/>
    </g>
    <g transform="translate(206.734 668.734)">
      <rect id="Rectangle_116-146" data-name="Rectangle 116" width="47" height="47" transform="translate(696.5 114.266) rotate(45)" fill="#898989"/>
    </g>
    <g transform="translate(293.734 668.734)">
      <rect id="Rectangle_116-147" data-name="Rectangle 116" width="47" height="47" transform="translate(696.5 114.266) rotate(45)" fill="#898989"/>
    </g>
    <g transform="translate(380.734 668.734)">
      <rect id="Rectangle_116-148" data-name="Rectangle 116" width="47" height="47" transform="translate(696.5 114.266) rotate(45)" fill="#898989"/>
    </g>
    <g transform="translate(467.734 668.734)">
      <rect id="Rectangle_116-149" data-name="Rectangle 116" width="47" height="47" transform="translate(696.5 114.266) rotate(45)" fill="#898989"/>
    </g>
    <g transform="translate(554.734 668.734)">
      <rect id="Rectangle_116-150" data-name="Rectangle 116" width="47" height="47" transform="translate(696.5 114.266) rotate(45)" fill="#898989"/>
    </g>
    <g transform="translate(-663.266 755.734)">
      <rect id="Rectangle_116-151" data-name="Rectangle 116" width="47" height="47" transform="translate(696.5 114.266) rotate(45)" fill="#898989"/>
    </g>
    <g transform="translate(-576.266 755.734)">
      <rect id="Rectangle_116-152" data-name="Rectangle 116" width="47" height="47" transform="translate(696.5 114.266) rotate(45)" fill="#898989"/>
    </g>
    <g transform="translate(-489.266 755.734)">
      <rect id="Rectangle_116-153" data-name="Rectangle 116" width="47" height="47" transform="translate(696.5 114.266) rotate(45)" fill="#898989"/>
    </g>
    <g transform="translate(-402.266 755.734)">
      <rect id="Rectangle_116-154" data-name="Rectangle 116" width="47" height="47" transform="translate(696.5 114.266) rotate(45)" fill="#898989"/>
    </g>
    <g transform="translate(-315.266 755.734)">
      <rect id="Rectangle_116-155" data-name="Rectangle 116" width="47" height="47" transform="translate(696.5 114.266) rotate(45)" fill="#898989"/>
    </g>
    <g transform="translate(-228.266 755.734)">
      <rect id="Rectangle_116-156" data-name="Rectangle 116" width="47" height="47" transform="translate(696.5 114.266) rotate(45)" fill="#898989"/>
    </g>
    <g transform="translate(-141.266 755.734)">
      <rect id="Rectangle_116-157" data-name="Rectangle 116" width="47" height="47" transform="translate(696.5 114.266) rotate(45)" fill="#898989"/>
    </g>
    <g transform="translate(-54.266 755.734)">
      <rect id="Rectangle_116-158" data-name="Rectangle 116" width="47" height="47" transform="translate(696.5 114.266) rotate(45)" fill="#898989"/>
    </g>
    <g transform="translate(32.734 755.734)">
      <rect id="Rectangle_116-159" data-name="Rectangle 116" width="47" height="47" transform="translate(696.5 114.266) rotate(45)" fill="#898989"/>
    </g>
    <g transform="translate(119.734 755.734)">
      <rect id="Rectangle_116-160" data-name="Rectangle 116" width="47" height="47" transform="translate(696.5 114.266) rotate(45)" fill="#898989"/>
    </g>
    <g transform="translate(206.734 755.734)">
      <rect id="Rectangle_116-161" data-name="Rectangle 116" width="47" height="47" transform="translate(696.5 114.266) rotate(45)" fill="#898989"/>
    </g>
    <g transform="translate(293.734 755.734)">
      <rect id="Rectangle_116-162" data-name="Rectangle 116" width="47" height="47" transform="translate(696.5 114.266) rotate(45)" fill="#898989"/>
    </g>
    <g transform="translate(380.734 755.734)">
      <rect id="Rectangle_116-163" data-name="Rectangle 116" width="47" height="47" transform="translate(696.5 114.266) rotate(45)" fill="#898989"/>
    </g>
    <g transform="translate(467.734 755.734)">
      <rect id="Rectangle_116-164" data-name="Rectangle 116" width="47" height="47" transform="translate(696.5 114.266) rotate(45)" fill="#898989"/>
    </g>
    <g transform="translate(554.734 755.734)">
      <rect id="Rectangle_116-165" data-name="Rectangle 116" width="47" height="47" transform="translate(696.5 114.266) rotate(45)" fill="#898989"/>
    </g>
    <g transform="translate(-663.266 842.734)">
      <rect id="Rectangle_116-166" data-name="Rectangle 116" width="47" height="47" transform="translate(696.5 114.266) rotate(45)" fill="#898989"/>
    </g>
    <g transform="translate(-576.266 842.734)">
      <rect id="Rectangle_116-167" data-name="Rectangle 116" width="47" height="47" transform="translate(696.5 114.266) rotate(45)" fill="#898989"/>
    </g>
    <g transform="translate(-489.266 842.734)">
      <rect id="Rectangle_116-168" data-name="Rectangle 116" width="47" height="47" transform="translate(696.5 114.266) rotate(45)" fill="#898989"/>
    </g>
    <g transform="translate(-402.266 842.734)">
      <rect id="Rectangle_116-169" data-name="Rectangle 116" width="47" height="47" transform="translate(696.5 114.266) rotate(45)" fill="#898989"/>
    </g>
    <g transform="translate(-315.266 842.734)">
      <rect id="Rectangle_116-170" data-name="Rectangle 116" width="47" height="47" transform="translate(696.5 114.266) rotate(45)" fill="#898989"/>
    </g>
    <g transform="translate(-228.266 842.734)">
      <rect id="Rectangle_116-171" data-name="Rectangle 116" width="47" height="47" transform="translate(696.5 114.266) rotate(45)" fill="#898989"/>
    </g>
    <g transform="translate(-141.266 842.734)">
      <rect id="Rectangle_116-172" data-name="Rectangle 116" width="47" height="47" transform="translate(696.5 114.266) rotate(45)" fill="#898989"/>
    </g>
    <g transform="translate(-54.266 842.734)">
      <rect id="Rectangle_116-173" data-name="Rectangle 116" width="47" height="47" transform="translate(696.5 114.266) rotate(45)" fill="#898989"/>
    </g>
    <g transform="translate(32.734 842.734)">
      <rect id="Rectangle_116-174" data-name="Rectangle 116" width="47" height="47" transform="translate(696.5 114.266) rotate(45)" fill="#898989"/>
    </g>
    <g transform="translate(119.734 842.734)">
      <rect id="Rectangle_116-175" data-name="Rectangle 116" width="47" height="47" transform="translate(696.5 114.266) rotate(45)" fill="#898989"/>
    </g>
    <g transform="translate(206.734 842.734)">
      <rect id="Rectangle_116-176" data-name="Rectangle 116" width="47" height="47" transform="translate(696.5 114.266) rotate(45)" fill="#898989"/>
    </g>
    <g transform="translate(293.734 842.734)">
      <rect id="Rectangle_116-177" data-name="Rectangle 116" width="47" height="47" transform="translate(696.5 114.266) rotate(45)" fill="#898989"/>
    </g>
    <g transform="translate(380.734 842.734)">
      <rect id="Rectangle_116-178" data-name="Rectangle 116" width="47" height="47" transform="translate(696.5 114.266) rotate(45)" fill="#898989"/>
    </g>
    <g transform="translate(467.734 842.734)">
      <rect id="Rectangle_116-179" data-name="Rectangle 116" width="47" height="47" transform="translate(696.5 114.266) rotate(45)" fill="#898989"/>
    </g>
    <g transform="translate(554.734 842.734)">
      <rect id="Rectangle_116-180" data-name="Rectangle 116" width="47" height="47" transform="translate(696.5 114.266) rotate(45)" fill="#898989"/>
    </g>
    <g transform="translate(-663.266 929.734)">
      <rect id="Rectangle_116-181" data-name="Rectangle 116" width="47" height="47" transform="translate(696.5 114.266) rotate(45)" fill="#898989"/>
    </g>
    <g transform="translate(-576.266 929.734)">
      <rect id="Rectangle_116-182" data-name="Rectangle 116" width="47" height="47" transform="translate(696.5 114.266) rotate(45)" fill="#898989"/>
    </g>
    <g transform="translate(-489.266 929.734)">
      <rect id="Rectangle_116-183" data-name="Rectangle 116" width="47" height="47" transform="translate(696.5 114.266) rotate(45)" fill="#898989"/>
    </g>
    <g transform="translate(-402.266 929.734)">
      <rect id="Rectangle_116-184" data-name="Rectangle 116" width="47" height="47" transform="translate(696.5 114.266) rotate(45)" fill="#898989"/>
    </g>
    <g transform="translate(-315.266 929.734)">
      <rect id="Rectangle_116-185" data-name="Rectangle 116" width="47" height="47" transform="translate(696.5 114.266) rotate(45)" fill="#898989"/>
    </g>
    <g transform="translate(-228.266 929.734)">
      <rect id="Rectangle_116-186" data-name="Rectangle 116" width="47" height="47" transform="translate(696.5 114.266) rotate(45)" fill="#898989"/>
    </g>
    <g transform="translate(-141.266 929.734)">
      <rect id="Rectangle_116-187" data-name="Rectangle 116" width="47" height="47" transform="translate(696.5 114.266) rotate(45)" fill="#898989"/>
    </g>
    <g transform="translate(-54.266 929.734)">
      <rect id="Rectangle_116-188" data-name="Rectangle 116" width="47" height="47" transform="translate(696.5 114.266) rotate(45)" fill="#898989"/>
    </g>
    <g transform="translate(32.734 929.734)">
      <rect id="Rectangle_116-189" data-name="Rectangle 116" width="47" height="47" transform="translate(696.5 114.266) rotate(45)" fill="#898989"/>
    </g>
    <g transform="translate(119.734 929.734)">
      <rect id="Rectangle_116-190" data-name="Rectangle 116" width="47" height="47" transform="translate(696.5 114.266) rotate(45)" fill="#898989"/>
    </g>
    <g transform="translate(206.734 929.734)">
      <rect id="Rectangle_116-191" data-name="Rectangle 116" width="47" height="47" transform="translate(696.5 114.266) rotate(45)" fill="#898989"/>
    </g>
    <g transform="translate(293.734 929.734)">
      <rect id="Rectangle_116-192" data-name="Rectangle 116" width="47" height="47" transform="translate(696.5 114.266) rotate(45)" fill="#898989"/>
    </g>
    <g transform="translate(380.734 929.734)">
      <rect id="Rectangle_116-193" data-name="Rectangle 116" width="47" height="47" transform="translate(696.5 114.266) rotate(45)" fill="#898989"/>
    </g>
    <g transform="translate(467.734 929.734)">
      <rect id="Rectangle_116-194" data-name="Rectangle 116" width="47" height="47" transform="translate(696.5 114.266) rotate(45)" fill="#898989"/>
    </g>
    <g transform="translate(554.734 929.734)">
      <rect id="Rectangle_116-195" data-name="Rectangle 116" width="47" height="47" transform="translate(696.5 114.266) rotate(45)" fill="#898989"/>
    </g>
  </g>
</svg>
